<svg xmlns="http://www.w3.org/2000/svg" viewBox="0 0 157.61 55.83"><defs><style>.cls-1{font-size:15.9px;}.cls-1,.cls-13,.cls-4{fill:#1d1d1b;}.cls-1,.cls-4{font-family:MyriadPro-Regular, Myriad Pro;}.cls-2{letter-spacing:0.01em;}.cls-3{letter-spacing:-0.01em;}.cls-4{font-size:7.18px;}.cls-5{letter-spacing:-0.01em;}.cls-6{letter-spacing:-0.01em;}.cls-7{letter-spacing:-0.08em;}.cls-8{letter-spacing:-0.01em;}.cls-9{letter-spacing:-0.02em;}.cls-10{letter-spacing:0.04em;}.cls-11,.cls-12,.cls-15{fill:none;stroke:#1d1d1b;stroke-miterlimit:10;}.cls-11{stroke-width:2px;}.cls-12{stroke-width:3px;}.cls-13{font-size:20px;}.cls-13,.cls-14{font-family:CenturyGothic, Century Gothic;}.cls-14{font-size:21px;fill:#e0a2c9;}.cls-15{stroke-width:1.43px;}</style></defs><g id="Слой_2" data-name="Слой 2"><g id="Слой_1-2" data-name="Слой 1"><text class="cls-1" transform="translate(29.5 43.05)">beau<tspan class="cls-2" x="33.45" y="0">t</tspan><tspan x="38.85" y="0">y ene</tspan><tspan class="cls-3" x="74.48" y="0">r</tspan><tspan x="79.55" y="0">gy</tspan></text><text class="cls-4" transform="translate(51.15 53.79)"><tspan class="cls-5">В</tspan><tspan x="3.84" y="0">СЁ П</tspan><tspan class="cls-6" x="17.65" y="0">Р</tspan><tspan x="21.41" y="0">О К</tspan><tspan class="cls-7" x="31.78" y="0">Р</tspan><tspan class="cls-8" x="34.99" y="0">А</tspan><tspan class="cls-9" x="39.28" y="0">С</tspan><tspan class="cls-5" x="43.3" y="0">О</tspan><tspan class="cls-10" x="48.2" y="0">Т</tspan><tspan x="52.05" y="0">У</tspan></text><line class="cls-11" y1="50.75" x2="44.64" y2="50.75"/><line class="cls-11" x1="112.97" y1="50.75" x2="157.61" y2="50.75"/><circle class="cls-12" cx="78.85" cy="15.57" r="14.07"/><text class="cls-13" transform="translate(70.51 20.16)">b</text><text class="cls-14" transform="translate(75.99 25.19)">e</text><path class="cls-15" d="M82.41,15.88a4.16,4.16,0,0,0,.13-1.23,4.25,4.25,0,0,0-.23-1.27"/></g></g></svg>